<?xml version="1.0" standalone="no"?><!DOCTYPE svg PUBLIC "-//W3C//DTD SVG 1.1//EN" "http://www.w3.org/Graphics/SVG/1.1/DTD/svg11.dtd"><svg t="1545409994655" class="icon" style="" viewBox="0 0 1024 1024" version="1.1" xmlns="http://www.w3.org/2000/svg" p-id="2605" xmlns:xlink="http://www.w3.org/1999/xlink" width="200" height="200"><defs><style type="text/css"></style></defs><path d="M510.793 513.919m-447.17 0a447.17 447.17 0 1 0 894.34 0 447.17 447.17 0 1 0-894.34 0Z" fill="#76C2AF" p-id="2606"></path><path d="M510.793 262.386c-131.2 0-237.559 105.107-237.559 234.764 0 205.415 237.559 352.146 237.559 352.146S748.352 706.24 748.352 497.15c0-129.656-106.359-234.764-237.559-234.764z m0 335.378C449.051 597.764 399 547.713 399 485.971s50.051-111.792 111.792-111.792 111.792 50.051 111.792 111.792-50.05 111.793-111.791 111.793z" fill="#231F20" p-id="2607"></path><path d="M510.793 234.438c-131.2 0-237.559 105.107-237.559 234.764 0 205.415 237.559 352.146 237.559 352.146s237.559-143.057 237.559-352.146c0-129.656-106.359-234.764-237.559-234.764z m0 335.378C449.051 569.816 399 519.764 399 458.023s50.051-111.792 111.792-111.792 111.792 50.051 111.792 111.792-50.05 111.793-111.791 111.793z" fill="#FFFFFF" p-id="2608"></path></svg>