<?xml version="1.0" standalone="no"?><!DOCTYPE svg PUBLIC "-//W3C//DTD SVG 1.1//EN" "http://www.w3.org/Graphics/SVG/1.1/DTD/svg11.dtd"><svg t="1545410058164" class="icon" style="" viewBox="0 0 1024 1024" version="1.1" xmlns="http://www.w3.org/2000/svg" p-id="3037" xmlns:xlink="http://www.w3.org/1999/xlink" width="200" height="200"><defs><style type="text/css"></style></defs><path d="M512.147 513.193m-447.935 0a447.935 447.935 0 1 0 895.87 0 447.935 447.935 0 1 0-895.87 0Z" fill="#C75C5C" p-id="3038"></path><path d="M400.163 625.176c0-7.699 9.011-6.914 15.679-10.763l84.183-48.603c6.667-3.849 17.578-3.849 24.245 0l84.183 48.603c6.667 3.849 15.679 3.064 15.679 10.763v103.666c0 7.699-9.011 20.921-15.679 24.77l-84.183 48.603c-6.667 3.849-17.578 3.849-24.245 0l-84.183-48.603c-6.667-3.849-15.679-17.071-15.679-24.77V625.176z" fill="#E0E0D1" p-id="3039"></path><path d="M512.147 695.166c-131.217 0-237.965-106.748-237.965-237.965S380.93 219.235 512.147 219.235 750.112 325.983 750.112 457.2 643.364 695.166 512.147 695.166z" fill="#F5CF87" p-id="3040"></path><path d="M512.147 233.233c123.694 0 223.967 100.274 223.967 223.967S635.841 681.168 512.147 681.168 288.18 580.895 288.18 457.201s100.273-223.968 223.967-223.968m0-27.996c-138.933 0-251.963 113.03-251.963 251.963s113.03 251.963 251.963 251.963S764.11 596.133 764.11 457.2 651.08 205.237 512.147 205.237z" fill="#C75C5C" p-id="3041"></path><path d="M400.163 710.573v46.265c0 7.7 9.011 20.921 15.678 24.771l84.183 48.602c6.667 3.85 17.578 3.85 24.245 0l84.183-48.602c6.667-3.85 15.679-17.071 15.679-24.771v-46.265c-33.787 16.858-71.729 26.587-111.984 26.587s-78.197-9.729-111.984-26.587z" fill="#231F20" p-id="3042"></path><path d="M400.163 625.881v102.961c0 7.7 9.011 20.921 15.678 24.771l84.183 48.602c6.667 3.85 17.578 3.85 24.245 0l84.183-48.602c6.667-3.85 15.679-17.071 15.679-24.771V625.881c-33.787 16.858-71.729 26.587-111.984 26.587s-78.197-9.729-111.984-26.587z" fill="#E0E0D1" p-id="3043"></path><path d="M512.147 485.197m-223.967 0a223.967 223.967 0 1 0 447.934 0 223.967 223.967 0 1 0-447.934 0Z" fill="#231F20" p-id="3044"></path><path d="M512.147 457.201m-223.967 0a223.967 223.967 0 1 0 447.934 0 223.967 223.967 0 1 0-447.934 0Z" fill="#F5CF87" p-id="3045"></path><path d="M512.147 646.877c-11.599 0-20.997-9.398-20.997-20.997V513.138c-37.326-1.989-67.276-11.216-89.189-27.511-22.918-17.04-35.542-40.969-35.542-67.372 0-44.133 35.152-80.037 78.363-80.037 23.417 0 43.71 8.345 58.671 24.134 32.015 33.778 29.999 89.709 29.664 95.969l0.027 167.559c0 11.599-9.398 20.997-20.997 20.997z m-67.365-266.665c-22.466 0-36.369 19.746-36.369 38.043 0 9.049 3.233 22.241 18.605 33.676 10.526 7.826 29.903 16.964 64.132 19.138v-13.868c0.615-13.191-1.524-48.487-18.242-66.032-7.122-7.478-16.062-10.957-28.126-10.957z" fill="#FFFFFF" p-id="3046"></path><path d="M512.229 646.877c-11.599 0-20.997-9.398-20.997-20.997V457.2c-0.308-5.14-2.324-61.07 29.691-94.849 14.962-15.789 35.255-24.134 58.671-24.134 43.211 0 78.363 35.904 78.363 80.037 0 26.403-12.624 50.333-35.542 67.372-21.92 16.301-51.877 25.529-89.21 27.511l0.021 112.742c0 11.6-9.398 20.998-20.997 20.998z m67.365-266.665c-12.105 0-21.065 3.506-28.194 11.032-16.746 17.668-18.803 53.627-18.201 64.836v14.996c34.25-2.18 53.634-11.319 64.16-19.145 15.372-11.435 18.605-24.626 18.605-33.676-0.001-18.297-13.903-38.043-36.37-38.043z" fill="#FFFFFF" p-id="3047"></path></svg>